<?xml version="1.0" encoding="utf-8"?>
<!-- Generator: Adobe Illustrator 28.1.0, SVG Export Plug-In . SVG Version: 6.00 Build 0)  -->
<svg version="1.1" id="Layer_1" xmlns="http://www.w3.org/2000/svg" xmlns:xlink="http://www.w3.org/1999/xlink" x="0px" y="0px"
	 viewBox="0 0 627 630" style="enable-background:new 0 0 627 630;" xml:space="preserve">
<style type="text/css">
	.st0{fill:url(#SVGID_1_);}
	.st1{fill:url(#SVGID_00000011011460248926129580000010412869319171229101_);}
	.st2{fill:url(#SVGID_00000078013060296920810690000010634842243672024497_);}
	.st3{fill:url(#SVGID_00000038380537631739375040000006395680522193983624_);}
	.st4{fill:url(#SVGID_00000062172280764400146780000004821585504065751223_);}
</style>
<linearGradient id="SVGID_1_" gradientUnits="userSpaceOnUse" x1="124.1804" y1="466.8138" x2="568.1368" y2="-42.1823" gradientTransform="matrix(1 0 0 -1 0 896)">
	<stop  offset="0.39" style="stop-color:#875CF0"/>
	<stop  offset="0.56" style="stop-color:#885BEE"/>
	<stop  offset="0.61" style="stop-color:#8F5AE9"/>
	<stop  offset="0.66" style="stop-color:#9B57DF"/>
	<stop  offset="0.69" style="stop-color:#AC54D1"/>
	<stop  offset="0.72" style="stop-color:#C250C0"/>
	<stop  offset="0.74" style="stop-color:#DC4AAA"/>
	<stop  offset="0.75" style="stop-color:#EA48A0"/>
</linearGradient>
<path class="st0" d="M286.7,490.9c-9.4-11.3-17.8-23.6-28.2-33.7c-33.3-32.3-71.6-56.9-116.5-70.1c-3.6-1.1-4.6-0.8-4.6,3.3
	c0.2,26.6,0.1,53.3,0.1,79.9v0c0,25.3-0.1,50.7,0,76c0,12.7,3.3,24.5,10.2,35.2c21.3,32.9,60.5,41.2,93.5,29.4
	c28-10,46.2-34.6,46.6-62.2c0.2-17.7,0-35.5,0-53.3C287.8,493.8,287.8,492.3,286.7,490.9L286.7,490.9z"/>
<linearGradient id="SVGID_00000133502251544804389440000014471804978125549725_" gradientUnits="userSpaceOnUse" x1="458.7745" y1="489.9984" x2="530.1614" y2="211.5087" gradientTransform="matrix(1 0 0 -1 0 896)">
	<stop  offset="0.68" style="stop-color:#875CF0"/>
	<stop  offset="1" style="stop-color:#EA48A0"/>
</linearGradient>
<path style="fill:url(#SVGID_00000133502251544804389440000014471804978125549725_);" d="M600.3,495.7c-7.3-10.9-15.6-21-23.5-31.3
	c-20.1-26.2-40.3-52.4-60.5-78.6c-1-1.3-1.6-2.8-4.1-2.4c-13.1,2.6-26.3,4.9-39.4,7.2l0,0l0,0c-8,0.6-16,1.3-24,2
	c-1.7-0.7-3.5-0.3-5.2-0.4c-0.2,0-0.4,0-0.5,0c-7.4-0.3-14.9,0-22.3-0.1c-1,0-2.1,0-3.1-0.1c-21.8-2.3-43.2-6.9-64.8-10.5
	c-8.1-1.4-16.2-1-24.2,2.6c1.1,1.5,1.9,2.7,2.7,3.8c16.6,21.6,33.1,43.3,49.7,64.9c29.2,38.1,58.4,76.2,87.6,114.2l0,0
	c4.7,6.3,9.4,12.7,14.2,19c3.8,5,8.3,9.5,13.4,13.2c17.5,12.8,37.1,16.9,58.6,14.4c27.4-3.1,50.9-22.4,58.3-49
	C620.2,539.7,614.3,516.8,600.3,495.7L600.3,495.7z"/>
<linearGradient id="SVGID_00000034803524190109638530000016477693697049469358_" gradientUnits="userSpaceOnUse" x1="282.0588" y1="837.8037" x2="-3.5868" y2="1251.6418" gradientTransform="matrix(1 0 0 -1 0 896)">
	<stop  offset="0" style="stop-color:#875CF0"/>
	<stop  offset="1" style="stop-color:#EA48A0"/>
</linearGradient>
<path style="fill:url(#SVGID_00000034803524190109638530000016477693697049469358_);" d="M142.2,235.3c32.5,9.9,59.3,28,79.5,55.5
	c2.7,3.7,5.4,7.2,8.8,11.7c2.6-20.8,10.9-37.5,26.1-50.4l0,0c8.5-5,17-9.8,26.7-11.8c3.6-0.7,4.5-2.2,4.5-5.8
	c-0.1-30.8,0-61.6-0.2-92.3c0-4.5,1.3-5.3,5.4-5.2c17.6,0.2,35.1,0,52.7-0.1l0,0c8.2,0.1,16.4,0.2,24.7,0.3
	c8.1,0.1,16.1-0.2,24.1,0.9c15.2,2,28,8.2,38.5,19.7c8.4,9.3,11.4,20.3,11.4,32.2c0,17.5-0.5,35.1-0.9,52.6c0,2.6,0.1,4.5,3.3,4.5
	c16.7,0.1,33.5,0,50.1-1.8l0,0c10.2,0,20.2-1.6,30.2-3.3c21.9-3.6,43.1-9.4,62.7-20.2c3.2-1.7,5.1-3.9,6-7.5
	c5.2-20.9,3.5-41.8-0.8-62.4c-10.4-51-40.3-87.4-86.1-110.9c-44.3-22.7-92-28.3-140.9-27l0,0c0,0,0,0,0,0.1c0,0,0,0,0,0
	c-21.2-0.1-42.5-0.2-63.7-0.2c-16.4,0-32.8,0.1-49.2,0.2c-0.2,0-0.3,0-0.5,0c-16.4,0-32.9-0.7-49.3,0.1
	c-22.1,1.2-39.9,11.4-53.6,28.7c0,0,0,0,0,0l0,0c-10,11.7-14.3,25.5-14.3,40.6c-0.1,48.4,0,96.8-0.1,145.2
	C137.3,232.5,138.4,234.2,142.2,235.3L142.2,235.3z"/>
<linearGradient id="SVGID_00000000200824748571799380000006701499873020503455_" gradientUnits="userSpaceOnUse" x1="151.7733" y1="853.1548" x2="151.7979" y2="853.1548" gradientTransform="matrix(1 0 0 -1 0 896)">
	<stop  offset="0" style="stop-color:#875CF0"/>
	<stop  offset="1" style="stop-color:#EA48A0"/>
</linearGradient>
<polygon style="fill:url(#SVGID_00000000200824748571799380000006701499873020503455_);" points="151.8,42.8 151.8,42.8 151.8,42.8 
	"/>
<linearGradient id="SVGID_00000108292068415065772500000004434897521222310333_" gradientUnits="userSpaceOnUse" x1="150.4245" y1="657.8862" x2="672.8502" y2="440.1966" gradientTransform="matrix(1 0 0 -1 0 896)">
	<stop  offset="0.86" style="stop-color:#875CF0"/>
	<stop  offset="1" style="stop-color:#EA48A0"/>
</linearGradient>
<path style="fill:url(#SVGID_00000108292068415065772500000004434897521222310333_);" d="M421.1,364.4c23.4,1.1,46.7-0.4,69.8-4.5
	c10.9-1.9,21.8-3.7,31.9-8.5c12.9-6.1,22.4-15.9,30.5-27.3c0,0,0,0,0,0c0,0,0,0,0,0l0,0c0.9-1.1,1.8-2.2,2.6-3.4
	c12-18.8,19.6-39.5,25.4-60.8c1.2-4.2,2.9-8.3,2.9-13.3c-12.2,7.5-24.8,12.1-37.9,15.7c-23.7,6.5-48.1,8.9-72.6,10.2
	c-15,0.7-30,0.6-44.9-0.1c-14.4-0.7-28.7-2.2-43.1-3.6c-0.3-0.1-0.5-0.4-0.8-0.5c-17.5-2-35-4.4-52.3-7.9c-12.3-2.5-24.2-1.4-36,2.4
	v0c-5,0.5-9.5,2.8-13.9,5c-25.3,12.7-38,34.7-44.4,61.2c0,0,0,0,0,0c0,0,0,0,0,0h0c-2.4,6-2.4,12.6-4.6,19.4
	c-7.7-9.9-14.7-19.7-22.3-28.9c-9.5-11.5-19.6-22.4-31.3-31.7l0,0c-9.4-8.3-19.5-15.6-31.1-20.6l0,0c0,0,0,0,0,0
	c-5.6-2.2-11.2-4.2-16.7-6.5c-14.4-6-29.2-6.4-44.4-4.4c0.1,0,0.3,0,0.5,0c-0.1,0-0.3,0-0.5,0c-10.8,0.7-20.7,4.4-30.6,8.3
	c-2.9,1.1-4.7,3-6.1,5.7c-9.3,18.9-18.7,37.7-28,56.6c-4.1,8.3-8.1,16.6-12.5,25.7c8.6-1.1,16.3-2.1,24-3.1h0c0,0,0,0,0,0
	c0.6,0,1.3,0.2,1.9,0.1c26.3-1.7,52.3-0.3,78.1,5.2c7.5,1.6,14.9,3.5,22.4,5.2c0,0,0.1,0,0.2,0c0,0-0.1,0-0.2,0.1
	c19.3,5.9,38,13.1,55.4,23.4c20.7,12.3,40.3,26.1,58.2,42.2l0,0c11.5,12.2,21.3,25.9,32.9,39.1c0.8-11.6,1-22.3,0.9-33.1
	c0,0,0,0,0,0c0-2.2,0.1-4.4,0.1-6.6c0,0,0-0.1,0-0.2c0.8-1.5,0.4-3,0.5-4.6c0.9-16.9-0.5-33.8,2.4-50.6c0,0,0,0,0,0
	c1.9-5.4,6.3-8.3,11-11c5.7-3.2,12.1-3.9,18.3-5.4c19.8-1.2,39.2,1.9,58.6,5.2C390.7,360.8,405.7,363.7,421.1,364.4L421.1,364.4z"/>
</svg>
