<?xml version="1.0" encoding="UTF-8" standalone="no"?><!DOCTYPE svg PUBLIC "-//W3C//DTD SVG 1.1//EN" "http://www.w3.org/Graphics/SVG/1.1/DTD/svg11.dtd"><svg width="100%" height="100%" viewBox="0 0 96 94" version="1.1" xmlns="http://www.w3.org/2000/svg" xmlns:xlink="http://www.w3.org/1999/xlink" xml:space="preserve" xmlns:serif="http://www.serif.com/" style="fill-rule:evenodd;clip-rule:evenodd;stroke-linejoin:round;stroke-miterlimit:2;"><path d="M42.2,72.733c-1.381,-1.66 -2.615,-3.467 -4.143,-4.951c-4.892,-4.745 -10.519,-8.359 -17.116,-10.299c-0.529,-0.162 -0.676,-0.118 -0.676,0.485c0.029,3.908 0.015,7.831 0.015,11.738c0,3.717 -0.015,7.449 0,11.166c0,1.866 0.485,3.599 1.499,5.171c3.129,4.833 8.888,6.053 13.737,4.319c4.114,-1.469 6.787,-5.083 6.846,-9.138c0.029,-2.6 0,-5.215 0,-7.831c0,-0.235 0,-0.455 -0.162,-0.661Z" style="fill:#f4f1fc;fill-rule:nonzero;"/><path d="M88.273,73.438c-1.072,-1.601 -2.292,-3.085 -3.452,-4.598c-2.953,-3.849 -5.921,-7.698 -8.888,-11.547c-0.147,-0.191 -0.235,-0.411 -0.602,-0.353c-1.925,0.382 -3.864,0.72 -5.788,1.058c-1.175,0.088 -2.351,0.191 -3.526,0.294c-0.25,-0.103 -0.514,-0.044 -0.764,-0.059l-0.073,0c-1.087,-0.044 -2.189,0 -3.276,-0.015c-0.147,0 -0.309,0 -0.455,-0.015c-3.203,-0.338 -6.347,-1.014 -9.52,-1.543c-1.19,-0.206 -2.38,-0.147 -3.555,0.382c0.162,0.22 0.279,0.397 0.397,0.558c2.439,3.173 4.863,6.361 7.302,9.535c4.29,5.597 8.58,11.195 12.87,16.778c0.69,0.926 1.381,1.866 2.086,2.791c0.558,0.735 1.219,1.396 1.969,1.939c2.571,1.881 5.451,2.483 8.609,2.116c4.025,-0.455 7.478,-3.291 8.565,-7.199c1.028,-3.658 0.162,-7.023 -1.895,-10.122Z" style="fill:#f4f1fc;fill-rule:nonzero;"/><path d="M20.971,35.182c4.775,1.454 8.712,4.114 11.68,8.154c0.397,0.544 0.793,1.058 1.293,1.719c0.382,-3.056 1.601,-5.509 3.834,-7.404c1.249,-0.735 2.498,-1.44 3.923,-1.734c0.529,-0.103 0.661,-0.323 0.661,-0.852c-0.015,-4.525 0,-9.05 -0.029,-13.56c0,-0.661 0.191,-0.779 0.793,-0.764c2.586,0.029 5.157,0 7.742,-0.015c1.205,0.015 2.409,0.029 3.629,0.044c1.19,0.015 2.365,-0.029 3.541,0.132c2.233,0.294 4.114,1.205 5.656,2.894c1.234,1.366 1.675,2.982 1.675,4.731c0,2.571 -0.073,5.157 -0.132,7.728c0,0.382 0.015,0.661 0.485,0.661c2.453,0.015 4.922,0 7.36,-0.264c1.499,0 2.968,-0.235 4.437,-0.485c3.217,-0.529 6.332,-1.381 9.212,-2.968c0.47,-0.25 0.749,-0.573 0.881,-1.102c0.764,-3.071 0.514,-6.141 -0.118,-9.167c-1.528,-7.493 -5.921,-12.84 -12.649,-16.293c-6.508,-3.335 -13.516,-4.158 -20.7,-3.967l0,0.015c-3.115,-0.015 -6.244,-0.029 -9.358,-0.029c-2.409,0 -4.819,0.015 -7.228,0.029l-0.073,0c-2.409,0 -4.833,-0.103 -7.243,0.015c-3.247,0.176 -5.862,1.675 -7.875,4.216c-1.469,1.719 -2.101,3.746 -2.101,5.965c-0.015,7.111 0,14.221 -0.015,21.332c-0,0.558 0.162,0.808 0.72,0.97Z" style="fill:#f4f1fc;fill-rule:nonzero;"/><path d="M61.946,54.148c3.438,0.162 6.861,-0.059 10.255,-0.661c1.601,-0.279 3.203,-0.544 4.687,-1.249c1.895,-0.896 3.291,-2.336 4.481,-4.011c0.132,-0.162 0.264,-0.323 0.382,-0.5c1.763,-2.762 2.88,-5.803 3.732,-8.932c0.176,-0.617 0.426,-1.219 0.426,-1.954c-1.792,1.102 -3.643,1.778 -5.568,2.307c-3.482,0.955 -7.067,1.308 -10.666,1.499c-2.204,0.103 -4.407,0.088 -6.596,-0.015c-2.116,-0.103 -4.216,-0.323 -6.332,-0.529c-0.044,-0.015 -0.073,-0.059 -0.118,-0.073c-2.571,-0.294 -5.142,-0.646 -7.684,-1.161c-1.807,-0.367 -3.555,-0.206 -5.289,0.353c-0.735,0.073 -1.396,0.411 -2.042,0.735c-3.717,1.866 -5.583,5.098 -6.523,8.991c-0.353,0.881 -0.353,1.851 -0.676,2.85c-1.131,-1.454 -2.16,-2.894 -3.276,-4.246c-1.396,-1.69 -2.88,-3.291 -4.598,-4.657c-1.381,-1.219 -2.865,-2.292 -4.569,-3.026c-0.823,-0.323 -1.645,-0.617 -2.453,-0.955c-2.116,-0.881 -4.29,-0.94 -6.523,-0.646l0.073,0l-0.073,0c-1.587,0.103 -3.041,0.646 -4.496,1.219c-0.426,0.162 -0.69,0.441 -0.896,0.837c-1.366,2.777 -2.747,5.539 -4.114,8.315c-0.602,1.219 -1.19,2.439 -1.836,3.776c1.263,-0.162 2.395,-0.309 3.526,-0.455c0.088,0 0.191,0.029 0.279,0.015c3.864,-0.25 7.684,-0.044 11.474,0.764c1.102,0.235 2.189,0.514 3.291,0.764l0.029,0c0,0 -0.015,0 -0.029,0.015c2.835,0.867 5.583,1.925 8.139,3.438c3.041,1.807 5.921,3.834 8.55,6.2c1.69,1.792 3.129,3.805 4.833,5.744c0.118,-1.704 0.147,-3.276 0.132,-4.863c0,-0.323 0.015,-0.646 0.015,-0.97l0,-0.029c0.118,-0.22 0.059,-0.441 0.073,-0.676c0.132,-2.483 -0.073,-4.966 0.353,-7.434c0.279,-0.793 0.926,-1.219 1.616,-1.616c0.837,-0.47 1.778,-0.573 2.689,-0.793c2.909,-0.176 5.759,0.279 8.609,0.764c2.248,0.338 4.452,0.764 6.714,0.867Z" style="fill:#f4f1fc;fill-rule:nonzero;"/></svg>